<svg width="652" height="200" viewBox="0 0 652 200" fill="none" xmlns="http://www.w3.org/2000/svg">
<path d="M90.5587 21.4453C113.112 21.4452 128.031 64.3358 128.031 64.3358L24.2879 64.3358L1.52588e-05 21.4453C1.52588e-05 21.4453 68.0058 21.4453 90.5587 21.4453Z" fill="#63D7FA"/>
<path d="M154.721 102.234C143.444 122.354 99.9266 114.219 99.9266 114.219L151.798 21.6677L200 21.4453C200 21.4453 165.997 82.1145 154.721 102.234Z" fill="#EC68C4"/>
<path d="M54.8208 119.211C43.5444 99.0912 72.1425 64.3359 72.1425 64.3359L124.014 156.887L100.1 200C100.1 200 66.0973 139.331 54.8208 119.211Z" fill="#A236F6"/>
<path d="M239.32 73.96H262L249.04 139H226.36L239.32 73.96ZM253.84 66.76C249.92 66.76 246.76 65.68 244.36 63.52C241.96 61.36 240.76 58.68 240.76 55.48C240.76 51.72 242.08 48.64 244.72 46.24C247.44 43.76 251 42.52 255.4 42.52C259.4 42.52 262.6 43.56 265 45.64C267.4 47.64 268.6 50.24 268.6 53.44C268.6 57.36 267.24 60.56 264.52 63.04C261.8 65.52 258.24 66.76 253.84 66.76ZM364.71 55L312.03 139H288.63L269.55 55H293.91L305.91 109.6L340.23 55H364.71ZM428.783 73.96L415.823 139H394.223L395.543 132.88C390.343 137.68 384.063 140.08 376.703 140.08C371.903 140.08 367.383 138.92 363.143 136.6C358.983 134.2 355.623 130.76 353.063 126.28C350.503 121.8 349.223 116.52 349.223 110.44C349.223 103.4 350.783 97.04 353.903 91.36C357.103 85.6 361.383 81.08 366.743 77.8C372.183 74.52 378.103 72.88 384.503 72.88C393.943 72.88 400.583 75.84 404.423 81.76L405.983 73.96H428.783ZM384.623 121.72C389.183 121.72 392.903 120.04 395.783 116.68C398.663 113.32 400.103 108.96 400.103 103.6C400.103 99.76 398.983 96.72 396.743 94.48C394.583 92.24 391.583 91.12 387.743 91.12C383.183 91.12 379.463 92.8 376.583 96.16C373.703 99.52 372.263 103.92 372.263 109.36C372.263 113.2 373.343 116.24 375.503 118.48C377.743 120.64 380.783 121.72 384.623 121.72ZM511.86 73.96L498.9 139H477.3L478.62 132.28C475.82 134.92 472.66 136.88 469.14 138.16C465.7 139.44 462.14 140.08 458.46 140.08C451.34 140.08 445.66 138.16 441.42 134.32C437.26 130.48 435.18 125 435.18 117.88C435.18 115.24 435.46 112.56 436.02 109.84L443.22 73.96H466.02L459.3 107.68C458.98 109.2 458.82 110.68 458.82 112.12C458.82 117.8 461.74 120.64 467.58 120.64C471.5 120.64 474.74 119.44 477.3 117.04C479.86 114.56 481.62 110.92 482.58 106.12L489.06 73.96H511.86ZM531.346 49.96H554.146L536.386 139H513.586L531.346 49.96ZM587.889 114.76C587.729 115.88 587.649 116.6 587.649 116.92C587.649 120.6 589.649 122.44 593.649 122.44C595.809 122.44 598.089 121.8 600.489 120.52L603.369 136.24C598.889 138.8 593.249 140.08 586.449 140.08C579.729 140.08 574.369 138.4 570.369 135.04C566.449 131.68 564.489 127 564.489 121C564.489 118.68 564.689 116.64 565.089 114.88L569.409 93.4H559.809L563.289 76.36H572.769L576.129 59.44H598.929L595.569 76.36H610.329L606.969 93.4H592.209L587.889 114.76Z" fill="white"/>
</svg>
