<svg width="385" height="99" viewBox="0 0 385 99" fill="none" xmlns="http://www.w3.org/2000/svg">
<path d="M13.3195 31.96H35.9995L23.0395 97H0.359531L13.3195 31.96ZM27.8395 24.76C23.9195 24.76 20.7595 23.68 18.3595 21.52C15.9595 19.36 14.7595 16.68 14.7595 13.48C14.7595 9.72 16.0795 6.64 18.7195 4.23999C21.4395 1.76 24.9995 0.519998 29.3995 0.519998C33.3995 0.519998 36.5995 1.56 38.9995 3.63999C41.3995 5.64 42.5995 8.24 42.5995 11.44C42.5995 15.36 41.2395 18.56 38.5195 21.04C35.7995 23.52 32.2395 24.76 27.8395 24.76ZM138.71 13L86.0302 97H62.6302L43.5502 13H67.9102L79.9102 67.6L114.23 13H138.71ZM202.783 31.96L189.823 97H168.223L169.543 90.88C164.343 95.68 158.063 98.08 150.703 98.08C145.903 98.08 141.383 96.92 137.143 94.6C132.983 92.2 129.623 88.76 127.063 84.28C124.503 79.8 123.223 74.52 123.223 68.44C123.223 61.4 124.783 55.04 127.903 49.36C131.103 43.6 135.383 39.08 140.743 35.8C146.183 32.52 152.103 30.88 158.503 30.88C167.943 30.88 174.583 33.84 178.423 39.76L179.983 31.96H202.783ZM158.623 79.72C163.183 79.72 166.903 78.04 169.783 74.68C172.663 71.32 174.103 66.96 174.103 61.6C174.103 57.76 172.983 54.72 170.743 52.48C168.583 50.24 165.583 49.12 161.743 49.12C157.183 49.12 153.463 50.8 150.583 54.16C147.703 57.52 146.263 61.92 146.263 67.36C146.263 71.2 147.343 74.24 149.503 76.48C151.743 78.64 154.783 79.72 158.623 79.72ZM285.86 31.96L272.9 97H251.3L252.62 90.28C249.82 92.92 246.66 94.88 243.14 96.16C239.7 97.44 236.14 98.08 232.46 98.08C225.34 98.08 219.66 96.16 215.42 92.32C211.26 88.48 209.18 83 209.18 75.88C209.18 73.24 209.46 70.56 210.02 67.84L217.22 31.96H240.02L233.3 65.68C232.98 67.2 232.82 68.68 232.82 70.12C232.82 75.8 235.74 78.64 241.58 78.64C245.5 78.64 248.74 77.44 251.3 75.04C253.86 72.56 255.62 68.92 256.58 64.12L263.06 31.96H285.86ZM305.346 7.95999H328.146L310.386 97H287.586L305.346 7.95999ZM361.889 72.76C361.729 73.88 361.649 74.6 361.649 74.92C361.649 78.6 363.649 80.44 367.649 80.44C369.809 80.44 372.089 79.8 374.489 78.52L377.369 94.24C372.889 96.8 367.249 98.08 360.449 98.08C353.729 98.08 348.369 96.4 344.369 93.04C340.449 89.68 338.489 85 338.489 79C338.489 76.68 338.689 74.64 339.089 72.88L343.409 51.4H333.809L337.289 34.36H346.769L350.129 17.44H372.929L369.569 34.36H384.329L380.969 51.4H366.209L361.889 72.76Z" fill="white"/>
</svg>
